# xmcd
#
# Track frame offsets: 
#        150
#        19917
#        36110
#        50133
#        71077
#        87349
#        102276
#        122486
#        142249
#        161168
#        180278
#        202444
#        228732
#        240860
#        251757
#
# Disc length: 3603 seconds
#
# Revision: 1
# Processed by: cddbd v1.5.2PL0 Copyright (c) Steve Scherf et al.
# Submitted via: ExactAudioCopy v0.99pb4
#
DISCID=dc0e110f
DTITLE=Rod Piazza and the Mighty Flyers - Alphabet Blues
DYEAR=2008
DGENRE=Blues
TTITLE0=Alphabet Blues
TTITLE1=So Glad To Have The Blues
TTITLE2=The Bounce
TTITLE3=Blues In '92
TTITLE4=Somebody
TTITLE5=Hydramatic Woman
TTITLE6=Tangled With A Woman
TTITLE7=Come On Home
TTITLE8=No Pretty Presents
TTITLE9=Can't Get That Stuff No More
TTITLE10=Skin Deep
TTITLE11=Night's End
TTITLE12=Chicken Shack Boogie
TTITLE13=Nook-N-Kranny
TTITLE14=T-Bone Jumps Again
EXTD=
EXTT0=
EXTT1=
EXTT2=
EXTT3=
EXTT4=
EXTT5=
EXTT6=
EXTT7=
EXTT8=
EXTT9=
EXTT10=
EXTT11=
EXTT12=
EXTT13=
EXTT14=
PLAYORDER=
